<?xml version="1.0" encoding="UTF-8"?>
<!DOCTYPE svg PUBLIC "-//W3C//DTD SVG 1.1//EN" "http://www.w3.org/Graphics/SVG/1.1/DTD/svg11.dtd">
<!-- Creator: CorelDRAW 2018 (64-Bit) -->
<svg xmlns="http://www.w3.org/2000/svg" xml:space="preserve" width="68.4106mm" height="68.4106mm" version="1.1" style="shape-rendering:geometricPrecision; text-rendering:geometricPrecision; image-rendering:optimizeQuality; fill-rule:evenodd; clip-rule:evenodd"
viewBox="0 0 6841.06 6841.06"
 xmlns:xlink="http://www.w3.org/1999/xlink">
 <defs>
  <style type="text/css">
   <![CDATA[
    .fil0 {fill:white}
   ]]>
  </style>
 </defs>
 <g id="Layer_x0020_1">
  <metadata id="CorelCorpID_0Corel-Layer"/>
  <path class="fil0" d="M1993.44 3633.47c-109.35,149.95 -270.66,55.04 -425.12,12.21l-41.62 189.09 270.42 66.96c36.75,109.15 -89.37,142.93 160.81,143.79l2.48 -165.1c118.39,-27.2 177.45,-61.3 229.7,-135.58 59.2,-84.17 72.65,-204.81 14.87,-298.6 -115.41,-187.33 -409.7,-147.93 -423.72,-317.93 96.47,-135.71 227.82,-55.65 372.4,-24.8l41.56 -173.51 -228.55 -57.64 -5.33 -134.21 -153.72 0.23c0.95,252.26 -26.22,103.89 -174.3,228.44 -70.67,59.44 -123.58,170.79 -85.62,286.91 80.38,245.93 438.94,165.85 445.74,379.74z"/>
  <path class="fil0" d="M3260.86 4929.94l-187.77 3.22 2.03 107.94 249.69 9.32 -0.87 95.53 -252.95 4.39 0.46 106.29 250.72 5.78 1.01 253 229.77 0 7.52 -258.01c304.97,1.49 242.42,22.68 243.03,-110.22 -265.95,0 -250.57,40.18 -250.54,-106.03l249.22 -7.57 1.11 -101.26 -185.76 -7.64c66.09,-112.65 215.04,-333.34 259.27,-449.14l-249.4 0.71 -182.13 422.52 -173.38 -422.06 -262.26 7.83 251.23 445.4z"/>
  <path class="fil0" d="M4739.52 3320.7l-120.64 40.41 0.37 121.25 158.7 20.4c-4.37,331.66 -180.39,144.47 -180.39,424.05l731.78 3.2 -3.46 -188.37 -417.55 -5.84c17.15,-43.69 38.21,-56.24 58.53,-110.24 48.47,-128.82 -43.32,-123.23 221.98,-121.82l1.9 -165.21 -218.73 -2.63c-50.7,-252.27 62.71,-313.95 270.17,-243.32l41.97 -175.17c-119.08,-62.74 -288.98,-63.27 -404.37,14.65 -138.36,93.43 -146.89,186.2 -140.26,388.64z"/>
  <path class="fil0" d="M1718.07 4223c63.04,180.28 253.52,434.43 356.61,545.8 89.27,96.42 370.91,334.32 533.66,380.35l-2.7 -303.32c-67.14,-56.04 -111.21,-74.92 -176.07,-129.07 -58.52,-48.84 -109.56,-82.8 -161.07,-141.68l-251.26 -339.06 -299.17 -13.02z"/>
  <path class="fil0" d="M4278.71 5152.33c297.28,-113.91 758.57,-552.72 856.44,-851.37l-288.93 -15.16c-78.5,76.66 -273.82,411.24 -560.03,553.54l-7.48 312.99z"/>
  <path class="fil0" d="M4280.08 2057.5l79.61 62.94c298.06,208.45 283.18,273.8 486.53,507.31l293.82 -17.28c-257.15,-393.97 -329.84,-580.91 -856.35,-849.68l-3.61 296.71z"/>
  <path class="fil0" d="M1792.72 2554.28l310.18 14.33c57.43,-139.53 355.03,-434.35 511.2,-486.51l-13.1 -186.21 7.69 -130.28c-272.27,82.19 -726.5,533.77 -815.97,788.67z"/>
  <path class="fil0" d="M3398.01 1287.56l-152.74 0c-27.96,27.69 -12.41,158.88 -16.14,232.86 -38.03,13.38 -71.22,22.31 -110.53,34.45 -40.99,12.66 -75.75,16.7 -100.73,39.9l5.11 135.99c55.04,15.12 146.01,-40.6 206.52,-47.62l0.63 75.11c-45.62,16.16 -180.26,46.23 -208.42,72.61 -8.71,37.07 -12.46,106.92 5.88,137.2 42.93,14.64 149.98,-39.68 202.54,-46.6 -0.4,61.26 -11.72,496.41 9.65,517.94 20.02,20.17 474.64,79.67 672.24,-319.28 18.57,-37.51 83.08,-226.44 48.85,-261.43 -19.81,-23.92 -25.01,-15.65 -87.21,-15.29 -148.77,0.88 -56.36,19.18 -117.37,176.56 -51.41,132.61 -197.63,241.57 -342.69,244.15l0.25 -400.08c92.08,-40.86 269.97,-69.65 342.27,-111.62 3.12,-44.58 7.35,-105.65 -3.75,-142.93 -53.93,-14.65 -261.87,82.47 -338.9,89.57l-0.16 -71.93c82.66,-42.24 271.43,-68.97 340.74,-112.85 9.07,-52.7 29.18,-160.88 -49.06,-140.87 -59.56,15.23 -247.32,85.68 -291.68,86.52 0.71,-50.07 14.84,-135.39 -15.3,-172.36z"/>
 </g>
</svg>
