<?xml version="1.0" encoding="UTF-8"?>
<!DOCTYPE svg PUBLIC "-//W3C//DTD SVG 1.1//EN" "http://www.w3.org/Graphics/SVG/1.1/DTD/svg11.dtd">
<!-- Creator: CorelDRAW 2018 (64-Bit) -->
<svg xmlns="http://www.w3.org/2000/svg" xml:space="preserve" width="68.4106mm" height="68.4106mm" version="1.1" style="shape-rendering:geometricPrecision; text-rendering:geometricPrecision; image-rendering:optimizeQuality; fill-rule:evenodd; clip-rule:evenodd"
viewBox="0 0 6841.06 6841.06"
 xmlns:xlink="http://www.w3.org/1999/xlink">
 <defs>
  <style type="text/css">
   <![CDATA[
    .fil0 {fill:white}
   ]]>
  </style>
 </defs>
 <g id="Layer_x0020_1">
  <metadata id="CorelCorpID_0Corel-Layer"/>
  <path class="fil0" d="M4444.55 3060.08l-2.81 1185.16 1.41 1.4c15.71,15.69 30.75,32.49 45.9,50.72 16.17,19.44 28.11,34.85 38.74,49.27 48.4,65.62 92.94,145.78 125.48,237.31l268.21 0.02 1.28 -90.66 -120.64 -0.93c-13.13,-85.06 -3.92,-817.89 -3.92,-968.02 0,-298.34 36,-216.19 -108.35,-377.35 -60.32,-67.34 -200.36,-198.36 -235.26,-255.51 -58.29,10.28 -123.39,51.63 -181.44,72.46 -1.99,-267.15 33,-157.74 -254.85,-496.47 -32.64,-38.42 -56.95,-71.67 -96.23,-113.5 -51.26,5.57 -305.82,141.25 -375.64,173.9 -71.11,33.25 -336.51,150.82 -377.73,185.87l-1.46 298.91c-80.13,55.11 -443.64,187.76 -513.38,241.49l-1.44 1238.35 -131.02 0.27 0.24 91.07 281.97 0.58 1.43 -1230.2c26.22,-22.69 597.91,-282.76 644.77,-292.79l-0.07 308.17c7.52,-4.78 14.92,-9.21 22.16,-13.29 14.58,-8.2 31.41,-16.46 50.3,-24.71l0.06 0.14c38.2,-17.44 77.64,-30.18 117.31,-38.43 41.06,-8.53 83.78,-12.58 126.82,-12.34 12.17,-0.07 24.32,0.21 36.41,0.83 -7.09,-51.66 -33.17,-55.41 -117.54,-140.91l-234.98 -251.22 -161.53 68.01 1.73 -173.07 627.34 -296.1 -0.51 810.38c31.51,8.03 62.75,18.95 93.19,32.85l0.06 -0.14c18.91,8.25 35.75,16.52 50.33,24.73 13.68,7.69 27.93,16.71 42.65,26.99 45.48,29.99 86.77,65.34 123.32,107.61 16.79,19.42 32.32,39.95 46.5,61.69l0.18 -419.26 171.01 -73.28zm-600.53 1431.77l-38.51 0.24 -0.43 -5.02c-13.04,-1.23 -25.95,-2.16 -38.69,-3.07 -48.92,3.47 -100.44,7.36 -151.92,27.04 -20.24,7.74 -39.04,16.47 -56.75,26.45 -19.03,10.72 -36.12,22.03 -51.69,34.22 -4.98,3.89 -9.91,7.95 -14.77,12.15l550.28 0.04c-4.87,-4.22 -9.81,-8.29 -14.79,-12.19 -15.56,-12.18 -32.66,-23.5 -51.7,-34.22 -17.72,-9.99 -36.51,-18.71 -56.75,-26.45 -24.85,-9.5 -49.71,-15.32 -74.28,-19.19zm-43.57 -542.13c0.24,-43.43 0.52,-86.46 0.81,-127.91l-0.68 -0.44c-10.16,-6.58 -21.87,-10.72 -34.19,-11.44 -12.33,0.72 -24.04,4.86 -34.21,11.45 -10.89,7.05 -20.06,17.01 -26.52,28.77 -6.17,11.23 -9.61,23.51 -9.4,35.72 0.24,13.97 5.22,29.81 16.11,46.63 3.3,5.1 9.71,10.72 17.94,15.97 7.47,4.77 14.87,8.31 21.41,10.12l14.67 1.02 14.99 -1.11c5.87,-1.67 12.41,-4.72 19.07,-8.78z"/>
  <path class="fil0" d="M2906.35 3484.32l0.24 139.2 384.92 -115.27c3.87,-4.84 7.81,-9.62 11.83,-14.33l-0.63 -205.59 -348.43 158.7c-34.5,15.49 -32.43,8.54 -47.93,37.29zm3.9 297.84l-4.6 144.84 255.06 -40.53c-0.09,-2.65 -0.12,-5.16 -0.12,-7.51 0,-37.77 5.76,-80.16 15.14,-122.01 4.3,-19.21 9.35,-38.1 14.9,-56.11l-280.38 81.32zm0.82 306.22l-5.43 161.11 190.16 -8.97c32.5,-31.89 76.19,-70.52 122.85,-105.51 -11.24,-24.47 -20.86,-49.82 -29.08,-76.35l-278.5 29.72zm56.02 314.94l-60.45 0.05 0.4 112.21c18,-40.02 38.31,-77.57 60.05,-112.26z"/>
  <path class="fil0" d="M1965.31 2616.46l501.23 283.04 57.01 -94.6c-69.88,-55.92 -471.59,-282.1 -503.53,-291.76l-54.71 103.32z"/>
  <path class="fil0" d="M4922.15 2803.8l53.59 96.62 500.06 -282.45 -53.42 -104.18c-54.63,16.52 -193.7,105.49 -250.85,138.54l-249.38 151.47z"/>
  <path class="fil0" d="M4384.12 2303.42l94.88 57.29c49.41,-77.73 97.11,-163.4 144.54,-246.4 41.32,-72.29 110.68,-176.39 141.6,-251.23l-99.65 -61.23c-35.24,77.16 -99.49,178.86 -142.94,251.6 -31.68,53.04 -124.33,200.85 -138.43,249.97z"/>
  <polygon class="fil0" points="3662.98,2141.78 3780.2,2142.73 3780.85,1565.1 3663.91,1564.15 "/>
  <polygon class="fil0" points="1727.51,3616.73 2306.84,3616.03 2306.2,3500.77 1733.8,3498.77 "/>
  <path class="fil0" d="M2678.65 1863.08l285.72 497.03 96.51 -54.74c-23.31,-78.19 -226.99,-380.15 -280.72,-500.72 -37.02,12.23 -75.46,36.7 -101.51,58.43z"/>
  <polygon class="fil0" points="5136.3,3612.02 5715.48,3616.72 5713.59,3498.73 5139.48,3499.04 "/>
  <path class="fil0" d="M3766.39 4135.44c12.92,-0.21 25.25,-0.93 37.05,-2.23 64.4,-10.18 130.77,-53.02 164.4,-104.94 118.12,-182.43 -16.77,-390.92 -201.45,-394.15 -184.7,3.23 -319.59,211.72 -201.47,394.15 33.64,51.92 100.01,94.76 164.4,104.94 11.81,1.3 24.14,2.02 37.07,2.23zm429.4 -256.48c0,27.67 -6.6,74.05 -12.57,97.96 -20.57,82.25 -55.17,146.52 -114.22,205.49l-4.04 3.85c-4.83,4.98 -3.5,2.77 -7.32,8.47 84.03,19.57 200.34,115.57 261.49,176.62 25.43,25.4 45.35,50.34 66.73,79.32 79.01,107.1 145.42,262.78 145.42,446.63 0,42.28 -36.24,82.9 -78.94,82.9l-300.77 0c-41.99,0 -78.93,-39.17 -78.93,-86.84 0,-42.94 39.94,-82.89 82.89,-82.89l198.13 0c-1.01,-45.71 -35.63,-138.83 -56.51,-180.31 -38.27,-75.96 -96.74,-145.68 -162.23,-196.94 -47.91,-37.5 -97.42,-65.24 -153.92,-86.85 -80.38,-30.75 -149.16,-34.24 -214.61,-38.96 -65.46,4.72 -134.25,8.21 -214.62,38.96 -56.51,21.61 -106.01,49.35 -153.91,86.85 -65.51,51.26 -123.97,120.98 -162.24,196.94 -20.89,41.48 -55.51,134.6 -56.52,180.31l198.15 0c42.94,0 82.88,39.95 82.88,82.89 0,47.67 -36.94,86.84 -78.94,86.84l-300.77 0c-42.69,0 -78.94,-40.62 -78.94,-82.9 0,-183.85 66.41,-339.53 145.43,-446.63 21.38,-28.98 41.3,-53.92 66.73,-79.32 61.15,-61.05 177.45,-157.05 261.48,-176.62 -3.81,-5.7 -2.49,-3.49 -7.32,-8.47l-4.03 -3.85c-59.05,-58.97 -93.65,-123.24 -114.22,-205.49 -5.97,-23.91 -12.57,-70.29 -12.57,-97.96 0,-54.4 17.21,-122 38.32,-170.88 33.76,-78.2 85.46,-134.71 151.07,-178.03 20.27,-14.45 42.49,-26.91 66.11,-37.22 53.39,-24.91 113.66,-36.55 173.91,-36.16 60.23,-0.39 120.51,11.25 173.89,36.16 23.62,10.31 45.86,22.77 66.13,37.22 65.6,43.32 117.29,99.83 151.06,178.03 21.11,48.88 38.32,116.48 38.32,170.88z"/>
  <path class="fil0" d="M3766.39 4135.44c12.92,-0.21 25.25,-0.93 37.05,-2.23 64.4,-10.18 130.77,-53.02 164.4,-104.94 118.12,-182.43 -16.77,-390.92 -201.45,-394.15 -184.7,3.23 -319.59,211.72 -201.47,394.15 33.64,51.92 100.01,94.76 164.4,104.94 11.81,1.3 24.14,2.02 37.07,2.23zm429.4 -256.48c0,27.67 -6.6,74.05 -12.57,97.96 -20.57,82.25 -55.17,146.52 -114.22,205.49l-4.04 3.85c-4.83,4.98 -3.5,2.77 -7.32,8.47 84.03,19.57 200.34,115.57 261.49,176.62 25.43,25.4 45.35,50.34 66.73,79.32 79.01,107.1 145.42,262.78 145.42,446.63 0,42.28 -36.24,82.9 -78.94,82.9l-300.77 0c-41.99,0 -78.93,-39.17 -78.93,-86.84 0,-42.94 39.94,-82.89 82.89,-82.89l198.13 0c-1.01,-45.71 -35.63,-138.83 -56.51,-180.31 -38.27,-75.96 -96.74,-145.68 -162.23,-196.94 -47.91,-37.5 -97.42,-65.24 -153.92,-86.85 -80.38,-30.75 -149.16,-34.24 -214.61,-38.96 -65.46,4.72 -134.25,8.21 -214.62,38.96 -56.51,21.61 -106.01,49.35 -153.91,86.85 -65.51,51.26 -123.97,120.98 -162.24,196.94 -20.89,41.48 -55.51,134.6 -56.52,180.31l198.15 0c42.94,0 82.88,39.95 82.88,82.89 0,47.67 -36.94,86.84 -78.94,86.84l-300.77 0c-42.69,0 -78.94,-40.62 -78.94,-82.9 0,-183.85 66.41,-339.53 145.43,-446.63 21.38,-28.98 41.3,-53.92 66.73,-79.32 61.15,-61.05 177.45,-157.05 261.48,-176.62 -3.81,-5.7 -2.49,-3.49 -7.32,-8.47l-4.03 -3.85c-59.05,-58.97 -93.65,-123.24 -114.22,-205.49 -5.97,-23.91 -12.57,-70.29 -12.57,-97.96 0,-54.4 17.21,-122 38.32,-170.88 33.76,-78.2 85.46,-134.71 151.07,-178.03 20.27,-14.45 42.49,-26.91 66.11,-37.22 53.39,-24.91 113.66,-36.55 173.91,-36.16 60.23,-0.39 120.51,11.25 173.89,36.16 23.62,10.31 45.86,22.77 66.13,37.22 65.6,43.32 117.29,99.83 151.06,178.03 21.11,48.88 38.32,116.48 38.32,170.88z"/>
 </g>
</svg>
