<?xml version="1.0" encoding="UTF-8"?>
<!DOCTYPE svg PUBLIC "-//W3C//DTD SVG 1.1//EN" "http://www.w3.org/Graphics/SVG/1.1/DTD/svg11.dtd">
<!-- Creator: CorelDRAW 2018 (64-Bit) -->
<svg xmlns="http://www.w3.org/2000/svg" xml:space="preserve" width="68.4106mm" height="68.4106mm" version="1.1" style="shape-rendering:geometricPrecision; text-rendering:geometricPrecision; image-rendering:optimizeQuality; fill-rule:evenodd; clip-rule:evenodd"
viewBox="0 0 6841.06 6841.06"
 xmlns:xlink="http://www.w3.org/1999/xlink">
 <defs>
  <style type="text/css">
   <![CDATA[
    .fil0 {fill:white}
    .fil1 {fill:white;fill-rule:nonzero}
   ]]>
  </style>
 </defs>
 <g id="Layer_x0020_1">
  <metadata id="CorelCorpID_0Corel-Layer"/>
  <path class="fil0" d="M3420.53 2982.7c28.63,-0.48 55.93,-2.08 82.1,-4.94 142.65,-22.55 289.66,-117.45 364.14,-232.47 261.67,-404.12 -37.13,-865.96 -446.24,-873.1 -409.11,7.14 -707.92,468.98 -446.25,873.1 74.48,115.02 221.5,209.92 364.14,232.47 26.17,2.86 53.48,4.46 82.11,4.94zm951.18 -568.16c0,61.3 -14.6,164.03 -27.84,216.98 -45.56,182.23 -122.22,324.6 -253,455.21l-8.95 8.53c-10.68,11.03 -7.77,6.14 -16.22,18.75 186.14,43.37 443.77,256.02 579.24,391.27 56.32,56.22 100.46,111.49 147.81,175.69 175.04,237.24 322.15,582.09 322.15,989.36 0,93.67 -80.29,183.61 -174.87,183.61l-534.68 0c-93.05,0 -174.86,-86.76 -174.86,-192.36 0,-95.13 88.46,-183.6 183.61,-183.6l307.35 0c-2.26,-101.28 -78.93,-307.54 -125.2,-399.41 -84.77,-168.28 -214.28,-322.7 -359.37,-436.27 -106.12,-83.06 -215.79,-144.5 -340.96,-192.38 -178.03,-68.11 -330.4,-75.85 -475.39,-86.3 -144.99,10.45 -297.37,18.19 -475.4,86.3 -125.17,47.88 -234.84,109.32 -340.96,192.38 -145.08,113.57 -274.6,267.99 -359.36,436.27 -46.27,91.87 -122.95,298.13 -125.2,399.41l1030.9 0c95.13,0 183.61,88.47 183.61,183.6 0,105.6 -81.83,192.36 -174.87,192.36l-1258.23 0c-94.57,0 -174.86,-89.94 -174.86,-183.61 0,-407.27 147.1,-752.12 322.14,-989.36 47.36,-64.2 91.5,-119.47 147.81,-175.69 135.47,-135.25 393.1,-347.9 579.24,-391.27 -8.45,-12.61 -5.53,-7.72 -16.22,-18.75l-8.95 -8.53c-130.78,-130.61 -207.43,-272.98 -253,-455.21 -13.23,-52.95 -27.84,-155.68 -27.84,-216.98 0,-120.5 38.12,-270.26 84.87,-378.52 74.8,-173.23 189.31,-298.4 334.64,-394.36 44.89,-32.02 94.14,-59.6 146.45,-82.46 118.27,-55.19 251.8,-80.96 385.23,-80.08 133.43,-0.89 266.95,24.89 385.22,80.08 52.32,22.86 101.57,50.44 146.45,82.46 145.33,95.96 259.84,221.13 334.64,394.36 46.75,108.26 84.87,258.02 84.87,378.52zm-955.31 2343.44c4.95,-13.31 6.69,-32.51 7.27,-60.2 -1.46,20.35 -3.91,40.44 -7.27,60.2z"/>
  <path class="fil1" d="M3420.53 737.17c740.96,0 1411.81,300.36 1897.41,785.95 485.59,485.6 785.95,1156.45 785.95,1897.41 0,740.96 -300.36,1411.81 -785.95,1897.41 -485.6,485.59 -1156.45,785.95 -1897.41,785.95 -740.96,0 -1411.81,-300.36 -1897.41,-785.95 -485.59,-485.6 -785.95,-1156.45 -785.95,-1897.41 0,-740.96 300.36,-1411.81 785.95,-1897.41 485.6,-485.59 1156.45,-785.95 1897.41,-785.95zm1697.87 985.49c-434.5,-434.49 -1034.8,-703.25 -1697.87,-703.25 -663.07,0 -1263.37,268.76 -1697.87,703.25 -434.49,434.5 -703.25,1034.8 -703.25,1697.87 0,663.07 268.76,1263.37 703.25,1697.87 434.5,434.49 1034.8,703.25 1697.87,703.25 663.07,0 1263.37,-268.76 1697.87,-703.25 434.49,-434.5 703.25,-1034.8 703.25,-1697.87 0,-663.07 -268.76,-1263.37 -703.25,-1697.87z"/>
  <path class="fil0" d="M3812.42 4108.11c-9.78,1.86 -20.53,3.3 -30.67,4.92 -5.29,0.84 -10.06,1.62 -10.63,7.02 -0.53,4.99 3.8,8.01 6.74,10.74 11.73,10.88 23.29,24.46 35.16,35.77 6.92,6.59 11.96,11.58 17.84,17.86 4.13,4.4 17.54,18.43 22.03,22.22l12.99 13.2c5.93,6.05 11.48,11.85 17.39,17.84 10.72,10.86 10.05,5.98 7,24.98 -1.63,10.17 -3.21,20.29 -4.81,30.43l-14.44 91.66c-1.53,9.77 -3.87,20.96 -4.82,30.61 -0.54,5.39 3.5,9.75 9.01,8.39l17.85 -8.73c1.88,-1.02 3.44,-2.06 5.52,-3.13 4.08,-2.09 7.91,-3.99 11.68,-5.95 15.39,-8.02 31.56,-16.01 46.82,-24.08 15.72,-8.31 31,-15.65 46.54,-23.93 3.8,-2.03 21.24,-11.85 24.42,-11.35l140.2 71.8c2.62,1.36 9.37,5.29 12.08,5.58 5.58,0.58 8.43,-4.22 7.57,-9.85 -6.19,-40.57 -12.69,-81.71 -18.93,-122.29 -1.51,-9.81 -3.47,-20.45 -5.08,-30.82 -2.85,-18.36 -3.41,-12.62 12.42,-28.48 1.54,-1.54 2.73,-2.8 4.24,-4.34l35.27 -35.65c3.01,-2.99 5.79,-5.84 8.71,-8.91l52.39 -53.28c3.44,-3.52 7.76,-6.35 6.11,-11.46 -1.59,-4.88 -6.28,-5.02 -11.66,-5.91 -5.12,-0.84 -10.22,-1.67 -15.24,-2.46 -0.73,-0.11 -1.2,-0.16 -1.85,-0.38 -2.23,-0.74 -0.18,-0.29 -1.51,-0.63 -1.08,-0.27 -2.96,-0.1 -4.28,-0.23 -2.42,-0.24 -5.1,-0.82 -7.51,-1.21 -20.2,-3.24 -40.57,-6.57 -60.7,-9.76 -20.39,-3.23 -40.69,-6.53 -61.04,-9.81 -7.24,-1.16 -8.45,-0.23 -11.44,-6.23l-71.08 -141.21c-2.15,-4.17 -3.39,-8.86 -7.82,-9.8 -6.2,-1.32 -7.85,3.45 -9.95,7.49 -2.07,3.97 -3.9,7.73 -5.92,11.7l-65.23 129.01c-2.87,5.73 -2.16,7.36 -9.17,8.46 -40.6,6.39 -81.22,13.43 -121.93,19.53l-0.91 -1.74 -2.7 0 -0.66 2.41zm111.72 -60.18c-4.78,0.93 -2.49,4.03 -6.06,4.97 -0.71,0.18 -2.3,0.34 -3.12,0.47 -4.34,0.69 -8.58,1.39 -12.87,2.08l-25.62 4.12c-8.63,1.38 -17.06,2.74 -25.68,4.14 -4.12,0.67 -9.31,0.64 -10.99,3.94 -2.18,4.26 1.35,8.09 6.15,7.56 11.66,-1.28 37.33,-6.1 50.96,-8.23 8.46,-1.32 17.26,-2.58 25.69,-4.13 2.73,-0.5 3.5,-1.1 4.55,-2.7 6.56,-9.89 0.92,-12.99 -3.01,-12.22zm210.85 4.81l-13.6 -27.43c-2.44,-4.59 -4.57,-9.05 -6.97,-13.81 -1.98,-3.93 -4.61,-12.54 -10.87,-8.92 -5.55,3.2 -0.16,10.62 1.77,14.4l20.84 41.5c1.5,2.96 1.76,3.7 5.58,4.39 3,0.54 5.95,0.97 9,1.45 5.92,0.93 11.88,1.9 17.84,2.87 5.35,0.86 32.37,6.18 35.35,4.58 2.17,-1.16 3.75,-4.41 2.1,-7.27 -1.42,-2.47 -4.18,-2.65 -7.25,-3.13l-35.83 -5.79c-5.76,-0.95 -12.31,-2.26 -17.96,-2.84zm71.57 306.48c2.18,13.79 4.31,27.44 6.42,41.09 2.54,16.43 4.14,25.78 -5.26,37.99 -5.63,7.33 -11.09,7.68 -12,11.54 -0.82,3.51 1.66,6.56 4.91,6.61 6.07,0.11 22.39,-14.91 24.72,-34.34 1.27,-10.61 -3.16,-31.2 -4.91,-42.38l-9.56 -61.41c-1.55,-10.29 -11.44,-7.11 -10.67,-0.06 1.43,13.14 4.27,27.78 6.35,40.96zm-181.74 18.46c-5.91,2.53 -31.4,15.97 -38.57,19.79 -2.84,1.51 -7.54,3.28 -8.98,5.53 -2.45,3.84 1.1,8.55 5.54,7.83 2.17,-0.35 16.22,-8.11 19.56,-9.84 6.22,-3.22 12.91,-6.46 19.18,-9.75 6.32,-3.32 3.37,-4.42 19.33,4.12 24.74,13.25 52.02,26.51 77.29,39.69 3.46,1.81 7.5,3.2 9.69,-0.75 2.85,-5.12 -2.12,-7.22 -5.14,-8.79l-86.89 -44.55c-3.12,-1.63 -7.33,-4.86 -11.01,-3.28zm-156.15 84.36l10.14 0.04c0.4,-0.28 0.36,-0.28 1.1,-0.56 2.16,-0.82 5.37,-0.58 12.11,-3.77 3.66,-1.73 7.17,-3.61 11.08,-5.64 7.63,-3.95 14.83,-7.74 22.36,-11.52 3.45,-1.73 9.18,-3.4 9.45,-7.65 0.37,-5.57 -5.05,-6.49 -9.19,-4.29 -7.11,3.79 -14.98,8.09 -22.38,11.49 -7.39,3.39 -15.02,8.86 -23.33,10.56 -10.19,2.09 -19.72,-0.94 -26.47,-5.78 -19.32,-13.85 -13.98,-32.45 -11.3,-50.11 2.96,-19.52 6.29,-39.05 9.17,-58.59 0.97,-6.65 -4.76,-9.52 -8.68,-5.91 -2.26,2.08 -2.62,9.74 -3.21,13.5l-9.07 58.19c-2.29,14.52 -3.41,28.14 6.62,41.32 13.66,17.95 28.9,16.99 31.6,18.72zm-135.09 -346.45l0 10.6c1.33,2.73 1.43,6.68 2.53,9.78 2.14,6.1 7.16,14.6 11.92,18.34 1.54,1.22 1.89,1.81 3.18,3.16l70.17 71.21c2.09,1.52 0.92,0.05 4.44,1.82 0.84,4.51 0.06,2.38 5.76,8.28 5.64,5.86 15.7,16.65 20.81,21.22 0.2,3.63 0.25,6.53 3.86,7.4 3.46,0.83 5.87,-1.25 6.55,-4.23 1.76,-7.69 0.2,-7.24 -7.02,-14.71 -7.57,-7.83 -14.96,-15.24 -22.51,-23.09l-11.41 -11.19c-3.85,-3.91 -7.36,-7.46 -11.17,-11.41 -3.73,-3.89 -7.24,-7.75 -11.13,-11.47 -0.91,-0.87 -1.93,-1.96 -2.66,-2.75l-6.04 -5.71c-11.05,-11.15 -22.66,-23.68 -33.47,-34.28 -4.73,-4.65 -8.58,-7.43 -11.71,-17.19 -2.77,-8.62 -1.79,-19.67 2.93,-27.54 1.43,-2.39 4.05,-4.65 3.36,-8.09 -0.59,-2.96 -3.86,-5.1 -7.33,-3.57 -3.29,1.44 -7.37,10.43 -8.65,13.99 -0.99,2.74 -1.13,6.88 -2.41,9.43zm587.18 10.68l0 -10.19c-1.61,-3.41 -1.01,-10.91 -8.54,-21.44 -8.01,-11.2 -18.54,-16.48 -32.38,-18.76 -3.84,-0.63 -13.99,-2.72 -17.37,-2.64 -6.1,0.15 -7.53,8.96 -0.74,10.45 11.76,2.58 23.45,2.08 32.54,8.13 13.77,9.17 19.97,26.76 13.4,42.61 -2.42,5.84 -4.66,8.11 -8.42,11.91 -6.76,6.85 -13.11,13.43 -19.86,20.35l-17.54 17.69c-5.72,4.6 -31.97,32.9 -43,43.27 -1.88,1.78 -9.79,7.82 -4.75,12.53 5.95,5.56 12.52,-6.81 17.35,-10.29 2.51,-1.81 12.66,-12.59 15.41,-15.34 6.79,-6.82 13.06,-13.5 19.87,-20.32l10.27 -10.05c7.87,-7.28 21.61,-22.28 30.17,-30.82 0.77,-0.77 1.78,-1.55 2.55,-2.41l6.17 -9.19c1.07,-2.06 2.11,-4.62 2.87,-7.08 0.78,-2.51 0.93,-6.15 2,-8.41zm-288.38 -233.03l-8.93 0c-3.78,1.29 -6.02,0.32 -13.86,3.65 -13.5,5.72 -18.71,14 -25.83,27.91l-48.03 95.16c-0.99,1.96 -2.33,3.76 -1.86,6.29 0.46,2.42 2.34,4 4.85,4.14 4.81,0.26 6.45,-5.68 8.38,-9.46 2.07,-4.05 4,-8.02 6.06,-12 1.18,-2.27 1.89,-3.68 2.84,-6.16 1.45,-3.75 2.5,-3.27 3.15,-6.35 -0.13,0.06 -0.29,0.07 -0.35,0.26 -0.02,0.07 -0.99,1.22 -2.86,1.15 0.13,-3.27 1.45,-2.92 4.38,-3.33 3.15,-5.34 11.74,-22.95 15.12,-29.67 5.13,-10.21 9.85,-19.79 15.12,-30.06 6.27,-12.24 8.75,-19.96 19.07,-26.1 10.43,-6.22 25.47,-6.6 35.68,0.32 10.12,6.84 12.15,13.45 18.64,26.05 1.86,3.59 5.58,12.86 8.27,14.35 3.15,1.75 6.38,-0.27 7.3,-2.48 1.29,-3.13 -0.8,-5.92 -1.97,-8.3 -9,-18.18 -15.48,-36.28 -36.03,-43.02 -2.72,-0.89 -6.77,-1.24 -9.14,-2.35z"/>
 </g>
</svg>
