<?xml version="1.0" encoding="UTF-8"?>
<!DOCTYPE svg PUBLIC "-//W3C//DTD SVG 1.1//EN" "http://www.w3.org/Graphics/SVG/1.1/DTD/svg11.dtd">
<!-- Creator: CorelDRAW 2018 (64-Bit) -->
<svg xmlns="http://www.w3.org/2000/svg" xml:space="preserve" width="68.4106mm" height="68.4106mm" version="1.1" style="shape-rendering:geometricPrecision; text-rendering:geometricPrecision; image-rendering:optimizeQuality; fill-rule:evenodd; clip-rule:evenodd"
viewBox="0 0 6841.06 6841.06"
 xmlns:xlink="http://www.w3.org/1999/xlink">
 <defs>
  <style type="text/css">
   <![CDATA[
    .fil0 {fill:#006CB5}
    .fil2 {fill:#006CB5}
    .fil1 {fill:#E6E6E6}
   ]]>
  </style>
 </defs>
 <g id="Layer_x0020_1">
  <metadata id="CorelCorpID_0Corel-Layer"/>
  <g id="_2276468452208">
   <path class="fil0" d="M2457.99 3403.96c0,-143.13 37.06,-271.97 86.93,-387.04 37.26,-85.95 122.22,-211.81 193.97,-278.02 11.55,-10.65 17.54,-19.98 30.2,-30.52 30.24,-25.16 64.86,-57.68 97.65,-79.01 22.96,-14.93 46.35,-31.25 72.21,-46.51 390.46,-230.36 901.98,-143.84 1199.51,194.35 23.35,26.55 47.99,54.38 67.73,83.95 107.24,160.64 176.88,334.37 176.88,545.56 0,230.19 -68.76,422.75 -197.94,596.21 -7.94,10.66 -18.58,23.59 -26.03,31.97 -32.61,36.66 -50.31,60.76 -87.85,91.53 -6.14,5.04 -9.12,9.19 -15.49,14.86 -162.21,144.54 -395.29,238.52 -621.42,238.52 -175.86,0 -276.26,-23.61 -426.36,-91.27 -140.22,-63.2 -268.82,-176.96 -355.04,-290.92 -43.58,-57.61 -75.73,-112.78 -109.34,-183.39 -57.97,-121.8 -85.61,-262.34 -85.61,-410.27zm439.93 -1144.37c-3.85,4.32 0.23,0.52 -4.78,4.07 -3.32,2.37 -1.38,1.04 -5.26,3.16 -4.1,2.24 -7.77,3.79 -11.11,5.44l-63.62 30.58 -82.47 48.17c-0.46,0.59 -1.11,1.35 -1.46,1.73l-42.09 30.74c-42.06,26.89 -104.18,84.11 -122.46,95.55 -0.62,6.11 -1.93,5.38 -8.35,10.83l-77.29 74.81c-6.21,9.92 -9.96,14.62 -18.27,23.09 -33.15,33.79 -72.96,96.28 -100.77,133.71l-8.98 9.21 -45.32 79.58c-7.03,9.55 1.59,0.53 -2.85,2.89 -5.65,16.12 -14.29,28.92 -21.53,45.02 -3.39,7.55 -6.18,12.74 -9.98,20.45l-11.74 19.3c-0.5,12.85 -14.93,39.28 -20.45,53.51 -37.47,96.5 -60.75,181.77 -75.79,285.94l-12.82 129.85 0 106.62c2.85,8.14 5.98,76.27 7.95,93.2 9.93,85.3 29.43,172.24 54.99,251.59 15.86,49.23 37.25,101.78 58.47,145.88l70.79 132.54c10.95,9.81 20.46,27.36 29.28,40.8 8.32,12.7 22.26,28.55 26.67,41.03 8.44,5.53 19.76,23.91 28.03,33.92l89.57 100.97 99.75 90.66c6.09,4.93 29.82,20.59 31.47,26.35 13.09,6.48 22.17,15.41 34.4,23.75 10.39,7.09 20.12,13.92 31.03,21.4 14.05,9.63 55.27,31.39 62.97,42.18 8.2,1.26 3.4,-0.27 12.18,4.2 3.08,1.57 6.46,3.78 10.47,6.13 7.62,4.45 12.39,7.02 19.44,11 7.95,4.48 33.46,16.03 39.34,21.42 11.89,3.55 73.45,31 78.7,37.18 9.59,-0.02 35.09,8.73 42.77,15.04 28.33,6.72 56.66,19.24 86.08,27.1 67.64,18.07 116.14,30.17 187.12,39.56 22.59,2.99 88.3,4.74 102.86,10.79l118.78 0c10.57,-3.92 70.96,-5.54 88.35,-7.41 49.13,-5.28 116.7,-17.12 164.17,-29.32 24.91,-6.41 54.23,-16.81 78.12,-20.84 7.09,-4.47 79.48,-29.15 86.95,-29.4 4.84,-6.39 30.02,-15.66 38.82,-19.18 15,-5.99 28.47,-14.09 42.64,-18l73.11 -40.11c10.49,-5.16 1.41,-2.06 9.84,-3.09 6.98,-8.65 29.69,-20.81 40.39,-26.88 13.78,-7.82 26.06,-17.83 39.54,-24.57 15.39,-11.98 32.07,-23.39 48.72,-36.17l114.11 -95.78c51.1,-45.63 95.22,-102.03 138.37,-157.06 13.45,-17.15 23.08,-31.89 34.96,-47.15 6.93,-13.88 17.45,-27.16 25.56,-41.3 6.16,-10.74 18.92,-33 25.89,-38.63 0.84,-5.11 39.73,-80.39 43.2,-82.95l45.75 -111.44c26.68,-74.34 52.9,-166.04 63.59,-245.72 2.62,-19.49 12.87,-136.67 14.81,-141.89l0 -106.22c-3.09,-8.24 -7.33,-87.15 -9.53,-105.62 -8.06,-67.52 -22,-127.82 -39.65,-192.57 -8.49,-31.19 -21.19,-60.58 -28.27,-90.43 -5.61,-6.83 -15.06,-33.95 -15.04,-42.77 -5.97,-4.47 -33.88,-67.67 -37.18,-78.7 -2.73,-2.99 -41.22,-71.45 -42.75,-81.43 -10.77,-7.68 -33.73,-50.78 -43.29,-64.6 -7.95,-11.49 -14.88,-20.47 -21.55,-30.86 -7.46,-11.64 -16.05,-19.93 -22.49,-32.94 -5.36,-1.3 -4.59,-4.04 -14.06,-16.08 -16.3,-20.74 -40.46,-50.43 -59.21,-67.75 -5.69,-5.26 -9.15,-10.64 -13.92,-16.51 -13.04,-16.06 -79.5,-77.65 -97.34,-93.08l-67.37 -55.4c-12.06,-4.26 -30.63,-19.83 -42.69,-27.77 -13.59,-8.95 -29.62,-17.56 -39.14,-28.18 -5.73,-0.85 -3.04,-0.17 -9.38,-3.44 -0.62,-0.32 -6.48,-3.93 -6.89,-4.18l-108.09 -60.43c-10.9,-3.01 -37.04,-13.38 -42.81,-20.75 -13.57,-0.71 -81.12,-30.45 -102.94,-37.76 -70.12,-23.51 -151.82,-43.6 -225.91,-53.28 -17.97,-2.35 -118.48,-10.18 -124.42,-12.36l-112.16 0c-13.7,4.85 -50.44,3.81 -68.19,5.36 -91.73,8.04 -208.74,33.78 -294.46,64.58l-103.88 39.12z"/>
   <path class="fil1" d="M3892.82 3012.49c28.72,138.66 46.05,210.01 48.95,359.48 44.14,0 322.8,3.03 341.65,-1.56 -2.42,-119.6 -47.93,-259.34 -103.22,-361.04 -9.66,-17.74 -50.49,-87.66 -61.17,-95.01 -23.15,9.71 -70.14,36.81 -108.17,53.35l-118.04 44.78zm-1106.8 -176.7c22.81,22 137.09,62.87 172.46,76.04 5.67,-9.64 11.82,-30.22 16.17,-41.58 5.53,-14.39 10.61,-26.86 16.73,-41.28 31.77,-74.77 80.03,-159.57 132.48,-218.88 -42.6,4.05 -184.35,89.9 -226.02,122.68 -28.15,22.14 -92.23,75.31 -111.82,103.02zm-0.76 1167.58c21.39,36.03 114.35,106.89 151.69,133.27 33.27,23.51 141.54,85.64 186.91,95.17 -4.29,-7.96 -17.28,-21.73 -24.58,-31.08 -60.76,-77.78 -105.89,-178.13 -139.88,-271 -70.68,17.9 -148.07,65.8 -174.14,73.64zm1079.77 -1087.04c33.88,-4.88 172.27,-63.43 190.01,-80.54 -27.7,-39.03 -118.63,-109.76 -162.21,-138.32 -58.57,-38.4 -129.63,-75.73 -203.23,-97.86l52.15 66.77c75.46,103.6 110.37,229.82 123.28,249.95zm-174.93 1325.02c81.49,-16.91 241.14,-114.7 308.9,-178.37 7.42,-6.97 12.26,-12.62 19.34,-19.23 10.16,-9.5 30.35,-28.4 37.47,-40.38 -18,-5.41 -110.8,-59.66 -191.15,-79.17 -29.32,63.91 -30.11,87.16 -74.17,170.58 -23.09,43.72 -43.65,72.64 -71.62,110.57 -5.1,6.91 -8.06,10.07 -13.42,16.92l-15.35 19.08zm-634.93 -1303.41c35.32,18.98 255.02,44.1 306.76,41.79l-0.03 -416.01c-48.75,6.1 -124.66,63.6 -152.96,99.24 -46.5,58.57 -59.64,66.21 -103.34,153.24 -14.22,28.32 -44.21,90.86 -50.43,121.74zm-0.57 964.81c4.75,26.03 37.24,95.02 49.37,119.27 18.18,36.34 42.9,79.19 64.23,106.97 11.94,15.56 25.48,35.09 38.6,46.99 14.23,12.92 26.66,29.3 43.3,42.3 21.04,16.44 74.96,56.97 111.83,59.06l-0.03 -416c-75.33,-2.08 -240.4,19.88 -307.3,41.41zm405.18 375.22c72.88,-9.83 152.74,-93.34 193.72,-149.05 33.86,-46.02 105.96,-176.84 114.69,-230.19 -33.26,-16.91 -262.81,-41.85 -307.75,-37.39l-0.66 416.63zm0.04 -1297.11c41.69,2.55 120.05,-5.67 160.55,-11.36 25.42,-3.58 49.73,-6.64 74.51,-11.12 24.08,-4.36 51.14,-11.39 74.09,-14.35 -14.88,-64.72 -77.05,-178.41 -115.19,-230.99 -35.16,-48.47 -112.76,-135.47 -193.97,-149.95l0.01 417.77zm-0.01 781.32c102.29,7.26 156.95,6.9 259.02,25.84 25.51,4.73 54.94,12.56 78.68,15.58 14.6,-45.36 25.16,-109.31 31.82,-158.78 4.16,-30.86 18.94,-151.38 12.63,-175.53l-381.03 0.02 -1.12 292.87zm0 -683.08l0 292.24 383.7 0.64c1.43,-114.76 -20.82,-229.8 -45.37,-334.29 -17.45,1.06 -57.49,11.64 -77.52,15.45 -95.51,18.14 -163.86,19.81 -260.81,25.96zm-482.02 292.87l384.14 -0.04 0 -292.83c-49.96,-6.51 -103.36,-5.16 -175.02,-15.32 -59.68,-8.46 -122.8,-24.88 -162.67,-30.21 -9.39,52.82 -23.85,102.54 -31.22,158.97 -8.16,62.4 -10.34,116.3 -15.23,179.43zm47.94 435.44l160.26 -29.72c59.46,-8.04 116.08,-8.83 175.3,-15.51l0.59 -292.4 -382.39 -0.5c-8.53,45.33 28,303.14 46.24,338.13zm-468.09 -436.7l322.33 1.29c0,-95.97 14.21,-186.28 30.79,-278.61 4.95,-27.55 15.72,-59.96 19.26,-86.43 -6.63,-3.89 -110.1,-41.22 -157.84,-66.55 -10.94,-5.81 -40.01,-22.49 -50.15,-26.05 -9.69,6.67 -51.41,75.9 -60.43,92.95 -55.58,104.98 -101.57,239.4 -103.96,363.4zm164.39 556.63c25.23,-11.07 57.06,-31.74 99.81,-50.18 17.52,-7.56 34.83,-14.85 52.92,-21.77 15.17,-5.8 44.66,-14.23 55.84,-20.86 -21.28,-78.9 -38.6,-182.35 -45.37,-267.11 -1.77,-22.24 -2.35,-81.1 -6.82,-98.13l-320.29 0.02c-5.23,65.08 32.96,200.59 53.5,255.46 13.74,36.69 31.09,73.14 48.36,106.26 10.26,19.68 42.74,73.19 59.15,93.05l2.9 3.26zm1170.61 -96.63c55.13,16.24 119.53,41.71 171.84,67.51 19.03,9.39 35.93,20.95 54.55,29.12 36.16,-37.1 94.75,-160.82 110.43,-202.6 20.83,-55.45 58.5,-190.29 53.48,-254.96l-339.62 -0.5c-4.67,18.47 -4.83,72.77 -6.53,95.41 -4.21,55.99 -14.23,125.3 -25.07,179.37 -5.81,28.94 -14.59,59.36 -19.08,86.65z"/>
   <path class="fil2" d="M2812.98 3912.18l-0.13 -800.5c1.36,-4.09 59.09,-21.37 66.95,-23.99l441.28 -146.88c10.71,-3.57 24.72,-9.19 35.75,-11.52l-0.02 802.17 -543.83 180.72zm179.25 -716.67c2.87,29.71 27.85,54.14 55.73,54.14 32.81,0.01 62.97,-14.43 78.44,-31.96 7.78,-8.81 13.94,-30.58 1.32,-39 -8.65,-5.76 -36.01,3.04 -45.7,5.87 -32.64,9.55 -53.71,21.39 -89.79,10.95zm630.38 237.22l107.62 33.26 -48.6 -173.79c-1.83,1.02 -3.46,5.36 -4.28,7.39 -1.19,2.95 -2.29,5.73 -3.62,8.92l-51.12 124.22zm12.25 513.87l32.69 56.75c-78.13,52.77 -215.32,99.89 -334.28,89.59 -90.84,-7.86 -171.46,-29.84 -248.91,-70.78 -11.78,-6.23 -21.94,-13.25 -33.5,-19.18 -19.89,-10.2 -32.3,6.56 -24.03,19.02 5.67,8.55 52.62,32.43 67.31,39.32 76.53,35.9 170.03,61.8 257.35,61.8 17.1,0 37.22,0.96 53.96,-0.27 42.63,-3.14 93.96,-13.77 133.35,-26.24 28.21,-8.93 51.36,-18.24 76.81,-29.77 15.33,-6.95 64.79,-35.14 69.67,-36.36l31.27 50.44 42.59 -125.01 -124.28 -9.31zm-713.99 -605.42c1.97,42.8 50.18,41.35 72.43,31.83 17.5,-7.48 13.43,-5.03 15.95,-23.25 9.92,-5.98 58.18,-16.73 74.32,-21.95 17.49,-5.66 57.22,-20.34 74.62,-21.45 -1.68,9.69 -19.99,43.22 -25.49,54.26 -38.95,78.19 -40.32,82.88 -90.31,154.28 -22.16,31.64 -45.18,64.22 -68.74,94.31 -19.65,25.09 -38.34,44.19 -55.8,65.85 -6.23,7.73 -13.82,13.3 -19.83,20.73 16.76,3.42 29.84,-2.75 41.63,-12.71 39.13,-33.03 125.89,-143.51 151.79,-183.07l23.02 -33.33c8.51,3.01 48.53,36.93 60.29,44.97 7.13,4.87 14.03,8.66 21.76,13.35 13.53,8.21 30.34,18.1 45.32,24.88 8.7,3.94 34.25,15.22 44.02,17.52 6.99,1.64 6.4,0.24 7.4,0.01 0.25,-0.06 0.69,-0.19 1.02,-0.34 1.63,-7.27 -2.35,-21.1 -4.6,-28.6 -4.73,-15.73 -3.87,-13.3 -17.55,-18.88 -17.1,-6.99 -33.41,-13.84 -50.42,-21.03l-74.41 -32.19c-5.87,-2.56 -20.53,-7.71 -25.18,-11.07l30.45 -49.66c23.83,-39.52 35.49,-64.34 55.81,-104.79 10.36,-20.62 20.53,-33.8 18.49,-62.15 -10.71,-1.96 -61.76,23.64 -71.67,29.12 -28.14,15.59 -150.49,53.74 -190.57,65.22 -13.59,3.89 -29.63,5.77 -43.75,8.14zm554.7 230.67c1.66,-7.13 7.59,-19.66 10.59,-27.02 20.22,-49.62 156.22,-386.39 160.08,-390.42l77.46 23.55 141.72 511.62c-8.56,-1.68 -75.41,-21.89 -80.32,-24.81l-28.42 -104.27 -165.48 -49.8 -35.22 85.32 -80.41 -24.17zm365.03 -806.83l-0.3 295.06 -447.4 -143.33 447.7 -151.73zm-1058.48 330.29l0 843.3c11.56,14.69 14.36,11.08 33.2,5.15 86.89,-27.38 177.61,-58.43 264.02,-87.15 74.31,-24.69 150.83,-51.58 225.27,-75.68 20.02,-6.49 57.54,-20.72 73.96,-25.3 8.16,-2.28 64.71,18.45 76.91,22.07 25.17,7.47 51.03,16.07 76.11,24.25l303.4 96.65c49.95,15.89 101.37,31.04 151.08,47.93l-0.05 -840.11 -114.48 -36.05c-1.94,-31.81 -0.22,-69.24 -0.22,-101.66l0 -203.17c0,-15.93 3.36,-35.07 -12.98,-36.81 -13.89,-1.47 -307.93,101.9 -341.31,113.31l-151.52 51.61c-16.66,7.7 -21.74,1.98 -38.12,-3.67 -43.81,-15.12 -400.79,-142.76 -409.51,-143.94l-0.02 294.15c-1.94,3.64 -3.37,3.25 -8.12,4.74l-97.68 32.73c-23.38,7.69 -20.32,3.8 -29.94,17.65z"/>
  </g>
 </g>
</svg>
