<?xml version="1.0" encoding="UTF-8"?>
<!DOCTYPE svg PUBLIC "-//W3C//DTD SVG 1.1//EN" "http://www.w3.org/Graphics/SVG/1.1/DTD/svg11.dtd">
<!-- Creator: CorelDRAW 2018 (64-Bit) -->
<svg xmlns="http://www.w3.org/2000/svg" xml:space="preserve" width="169.333mm" height="169.333mm" version="1.1" style="shape-rendering:geometricPrecision; text-rendering:geometricPrecision; image-rendering:optimizeQuality; fill-rule:evenodd; clip-rule:evenodd"
viewBox="0 0 16933.32 16933.32"
 xmlns:xlink="http://www.w3.org/1999/xlink">
 <defs>
  <style type="text/css">
   <![CDATA[
    .fil0 {fill:#238DC1}
   ]]>
  </style>
 </defs>
 <g id="Layer_x0020_1">
  <metadata id="CorelCorpID_0Corel-Layer"/>
  <path class="fil0" d="M7567.9 5407.84c51.68,83.86 99.86,110.73 171.36,184.23 34.26,35.22 51.25,58.48 82.47,89.33 60.96,60.21 16.19,31.1 95.34,68.77 4.06,44.47 -14.41,26.63 29.51,40 49.61,74.11 61.61,71.56 140.73,143.08 69.94,63.22 99.79,95.26 178.52,137.2 23.73,75.07 14.05,48.05 66.87,73.73 51.03,94.81 105.1,98.91 173.13,185.43l-144.42 5.55c-1495.29,104.14 -3213.66,130.17 -4757.68,202.38 -328.51,15.37 -962.5,-18.35 -1065.53,546.19 -42.08,81.49 -46.41,238.49 -5.07,333.45 42.41,227.37 196.62,366.72 345.12,451.64 216.92,124.07 385.02,86.18 661.22,73.89 1468.58,-65.36 3260.58,-177.1 4663.64,-193.57l21.67 486.52c-404.55,15.66 -1691.47,3.26 -1949.7,158.46l-44.6 43.46c-69.57,18.97 -104.63,49.54 -157.89,112.55 -36.3,42.93 -87.41,100.09 -86.21,160.3 -77.48,75.95 -79.57,152.89 -93.29,265.31 7.13,223.77 76.47,385.28 188.89,502.49 93.38,97.37 250.45,208.62 426.28,228.64 188.13,21.43 1107.71,-22.41 1302.55,-55.57l20.63 495.01c-224.65,-14.49 -795.2,0.63 -977.18,94.2 -211.24,108.6 -389.19,291.01 -409.26,591.58 8.13,404.89 255.17,686.55 594.78,739.29 213.12,33.11 1066.06,-17.92 1322.03,-42.18l25.42 483.45c-275.4,1.29 -503.93,21.13 -680.53,191.37 -345.91,333.48 -329.25,753.36 49.73,1084.42 172.72,150.86 373.7,146.16 645.35,133.66 450.19,-20.69 3003.37,-62.58 3196.07,-202.78 113.65,6.86 247.77,-42 352.51,-84.34 341.7,-80.33 915.7,-412.48 1091.97,-604.88 186.04,-113.19 585.62,-534.03 690.52,-714.48 138.44,-136 220.86,-326.7 331.8,-529.18 101.54,-185.32 174.42,-407.81 242.68,-637.83l80.06 -420.73 26.64 -236.84c23.92,-313.28 -9.35,-888.86 -104.88,-1164.65 -29.55,-213.43 -201.75,-741.08 -332.91,-841.25 -15.33,-141.29 -355.53,-593.66 -426.9,-647.44l-164.34 -195.77c-137.73,-131.77 -424.53,-439.15 -576.94,-489.58 -53.37,-98.05 -1315.66,-893.8 -1503.61,-913.92 -38.6,-46.81 -22.13,-34.04 -87.14,-73.05l-292.37 -168.25c-127.37,-64.39 -287.82,-171.28 -399.79,-218.05 -94.28,-59.53 -177.5,-95.39 -274.48,-154.73 -108.67,-66.48 -174.18,-108.58 -289.38,-173.21 -134.58,-75.52 -466.76,-305.2 -574.68,-317.2 -87.69,-106.74 -601.05,-386.51 -700.99,-425.56 -35.71,-39.36 -446.89,-268.46 -541.38,-315.15 -155.95,-77.04 -407.77,-254.73 -583.05,-264.88 -56.88,-62.31 -164.28,-84.58 -241.98,-101.22 -691.95,-168.58 -813.92,354.94 -529.98,886.14 189.17,353.9 554.33,792.54 778.67,994.57zm-368.56 348.26c-29.93,-59.03 -508.48,-596.41 -631.4,-793.13l-189.98 -269.53c-8.13,-96.33 -147.38,-330.31 -185.72,-483.11 -71.26,-283.99 -7.68,-360.11 -13.1,-597.5 60.94,-51.9 74.81,-125.15 120.04,-198.67 50.99,-82.91 83.84,-90.52 141.57,-154.48 170.51,-188.94 225.29,-140.07 378.32,-232.94l330.26 -6.76 325.62 63.65c134.39,42.21 258.39,84.8 383.6,139.71 102.26,44.82 281.81,148.2 370.58,155.37 61.44,77.99 274.19,167.89 371.12,222.3 140.33,78.77 272.39,174.93 409.22,224.2 5.21,8.59 992.73,639.3 1091.92,655.59 57.68,76.45 547.39,362.07 669.37,413.28 123.63,82.14 1098.33,631.91 1219.3,641.62 79.46,99.01 231.44,150.11 342.44,206.19 128.8,65.06 246.72,130.48 355.1,209.65l70.31 15.58c41.03,61.9 231.91,192.02 307.42,239.8 68.33,43.24 -5.88,8.24 72.04,38.3l786.45 749.49c66.09,128.85 158.91,216.96 241.02,353.4l238.64 348.04c4.86,60.92 245.18,547 292.69,719.27 27.05,95.84 73.46,345.16 127.28,402.65 -7.4,179.16 53.54,367.45 68.85,550.07 15.47,184.52 23.08,420.55 12.1,604.69l-23.7 275.3 -33.32 333.23c-3.63,5.26 -14.06,14.44 -8.92,16.97l-119.24 393.22c-42.98,146.35 -102.26,267.35 -139.24,410.8 -54.15,63.78 -127.46,253.55 -178.28,336.7 -38.75,63.44 -66.2,108.82 -101.69,166.55 -38.7,62.87 -88.06,124.44 -100.01,185.08 -75.26,44.25 -273.7,323.96 -374.43,443.27l-58.14 75.15c-33.45,16.92 -0.94,-5.09 -52.81,35.27 -29.5,22.96 -41.24,34.94 -66.66,57.49 -497.14,441.3 -379.66,310.72 -942.7,666.33 -64.06,25.53 -331.4,136.14 -373.24,187.48 -115.29,-2.22 -515.03,147.52 -717.72,173.76l-266.32 47.22c-567.14,44.62 -1150.48,58.02 -1720.47,81.49 -533.53,21.97 -1185.5,84.25 -1700.9,39.25 -242.54,-93.93 -392.62,-147.1 -546.32,-275.98 -75.19,-63.01 -128.14,-137.18 -193.68,-227.72 -78.34,-108.27 -92.14,-193.44 -150.81,-284.01l-46.03 -280.13 23.8 -366.03c38.02,-156.71 129.78,-297.29 152.8,-398.62 -354.75,7.1 -588.1,-125.13 -796.46,-275.49 -46.19,-66.47 -15.26,-44.27 -101.54,-82.75 -32.28,-89.14 -138.96,-191.92 -197.23,-316.39 -59.01,-126.03 -89.76,-258.78 -105.58,-416.24 -1.56,-483.55 78.18,-519.54 234.64,-846.41l-418.9 -254.64c-97.15,-132.51 -187.94,-194.03 -278.52,-408.36 -84.66,-200.35 -102.12,-345.93 -92.52,-575.09 28.48,-104.34 39.76,-200.1 84.58,-307.37 37.58,-89.95 97.24,-173.53 100.78,-245.04 -230.19,26.72 -2380.87,132.97 -2612.01,85.98 -326.94,-66.49 -473.59,-224.44 -593.55,-275.43 -16.23,-60.43 -163.06,-201.82 -220.78,-305.96 -62.41,-112.58 -108.21,-247.5 -132.25,-393.02l-13.3 -280.87c42.88,-474.26 315.92,-805.34 643.63,-969.71 380.59,-190.89 1020.9,-149.17 1481.77,-169.94l3185.11 -140.61 -134.9 -131.46z"/>
 </g>
</svg>
